<?xml version="1.0" encoding="utf-8"?>
<svg viewBox="229.08 160.096 48 48" xmlns="http://www.w3.org/2000/svg">
  <ellipse style="stroke: rgb(0, 0, 0); paint-order: stroke; stroke-opacity: 0; fill: rgb(130, 87, 230);" cx="253.08" cy="184.096" rx="24" ry="24"/>
  <path d="M 253.786 171.471 C 247.167 171.478 241.802 176.847 241.795 183.471 L 241.795 193.797 C 241.796 194.721 242.544 195.47 243.467 195.471 L 253.786 195.471 C 263.017 195.471 268.786 185.471 264.171 177.471 C 262.029 173.758 258.07 171.471 253.786 171.471 Z M 253.786 194.002 L 243.467 194.002 C 243.355 194.001 243.263 193.91 243.263 193.797 L 243.263 183.471 C 243.263 175.365 252.032 170.298 259.047 174.351 C 266.063 178.404 266.063 188.537 259.047 192.591 C 257.448 193.515 255.633 194.002 253.786 194.002 Z M 249.136 183.961 C 249.136 184.904 248.117 185.493 247.301 185.022 C 246.485 184.551 246.485 183.372 247.301 182.901 C 247.487 182.793 247.698 182.737 247.913 182.737 C 248.588 182.738 249.136 183.285 249.136 183.961 Z M 255.01 183.961 C 255.01 184.904 253.99 185.493 253.174 185.022 C 252.358 184.551 252.358 183.372 253.174 182.901 C 253.36 182.793 253.571 182.737 253.786 182.737 C 254.461 182.738 255.009 183.285 255.01 183.961 Z M 260.883 183.961 C 260.883 184.904 259.863 185.493 259.047 185.022 C 258.232 184.551 258.232 183.372 259.047 182.901 C 259.233 182.793 259.444 182.737 259.659 182.737 C 260.335 182.738 260.882 183.285 260.883 183.961 Z" style="fill: rgb(255, 255, 255);"/>
</svg>